<?xml version="1.0" encoding="UTF-8" standalone="no"?>
<svg
   xmlns:dc="http://purl.org/dc/elements/1.1/"
   xmlns:cc="http://creativecommons.org/ns#"
   xmlns:rdf="http://www.w3.org/1999/02/22-rdf-syntax-ns#"
   xmlns:svg="http://www.w3.org/2000/svg"
   xmlns="http://www.w3.org/2000/svg"
   version="1.1"
   id="svg2"
   viewBox="0 0 102.148 100"
   height="100"
   width="102.148">
  <defs
     id="defs4" />
  <metadata
     id="metadata7">
    <rdf:RDF>
      <cc:Work
         rdf:about="">
        <dc:format>image/svg+xml</dc:format>
        <dc:type
           rdf:resource="http://purl.org/dc/dcmitype/StillImage" />
        <dc:title></dc:title>
      </cc:Work>
    </rdf:RDF>
  </metadata>
  <g
     transform="translate(0,-952.36216)"
     id="layer1">
    <path
       style="fill:#1a3668"
       class="st0"
       d="m 102.14786,997.01074 c 0,-14.4468 -11.491887,-26.2558 -25.812607,-26.7747 -3.68288,-10.4 -13.61441,-17.8739 -25.26485,-17.8739 -11.64685,0 -21.57838,7.47029 -25.26486,17.8739 -14.317119,0.5225 -25.80539968774,12.3279 -25.80539968774,26.7747 0,8.57306 4.05045038774,16.21636 10.33874068774,21.12086 -0.6810903,2.3639 -1.0558603,4.8576 -1.0558603,7.4378 0,14.7712 12.0216193,26.7928 26.7999893,26.7928 5.60721,0 10.81441,-1.7369 15.12432,-4.6919 4.25586,2.8469 9.36937,4.5117 14.86486,4.5117 14.77477,0 26.79639,-12.0216 26.79639,-26.7928 0,-2.5297 -0.36036,-4.9729 -1.01622,-7.2901 6.25946,-4.9081 10.295497,-12.5333 10.295497,-21.08837 m -29.675667,-17.8522 c 0,10.7243 -7.93874,19.60723 -18.24504,21.14247 -0.16576,-1.07754 -0.27748,-2.16944 -0.27748,-3.28657 0,-10.728 7.93874,-19.6109 18.24504,-21.1424 0.16577,1.0667 0.27748,2.1622 0.27748,3.2865 m -21.30089,61.56047 c -4.00721,-3.8919 -6.50451,-9.319 -6.50451,-15.3262 0,-5.9171 2.41802,-11.2792 6.30631,-15.1567 4.0036,3.8919 6.5045,9.3225 6.5045,15.3333 0,5.9135 -2.41441,11.2757 -6.3063,15.1496 m -21.22162,-64.85416 c 10.3063,1.5315 18.24504,10.418 18.24504,21.1423 0,1.11722 -0.11171,2.21272 -0.28108,3.28656 -10.3063,-1.53513 -18.24504,-10.41447 -18.24504,-21.14237 0.004,-1.1171 0.11531,-2.21259 0.28108,-3.2865 m 15.95675,30.71717 c -3.52072,7.0018 -10.75675,11.8271 -19.11351,11.8271 -3.54234,0 -6.88288,-0.8829 -9.83062,-2.4145 3.52072,-7.0018 10.75675,-11.827 19.11351,-11.827 3.54954,0 6.88648,0.8793 9.83062,2.4144 m 10.26306,-0.1441 c 2.96577,-1.5532 6.32433,-2.4469 9.9027,-2.4469 8.41441,0 15.68648,4.8937 19.18558,11.9748 -2.96576,1.5532 -6.33153,2.4469 -9.9027,2.4469 -8.41801,0 -15.69369,-4.8973 -19.18558,-11.9748 m -5.09909,-48.68117 c 8.77116,0 16.3135,5.3045 19.61801,12.8685 -8.70631,1.5351 -15.97117,7.2829 -19.61801,15.0558 -3.63964,-7.7766 -10.90811,-13.5243 -19.61441,-15.0558 3.3045,-7.564 10.84684,-12.8685 19.61441,-12.8685 m -45.6756693,39.254 c 0,-11.027 8.3819803,-20.1261 19.1062993,-21.2756 -0.14414,1.1207 -0.22702,2.263 -0.22702,3.4234 0,7.8342 3.38018,14.8901 8.75315,19.79463 -8.88649,1.0126 -16.46847,6.38204 -20.544139,13.92434 -4.3387403,-3.9207 -7.0882903,-9.5747 -7.0882903,-15.86677 m 9.2828793,28.55867 c 0,-1.5207 0.16216,-3.0054 0.46847,-4.436 3.52793,1.7081 7.47748,2.6703 11.65045,2.6703 4.69189,0 9.0991,-1.2145 12.94054,-3.3406 -0.2991,1.6 -0.46487,3.2433 -0.46487,4.9297 0,7.2361 2.89369,13.809 7.57477,18.6379 -3.16756,1.8558 -6.83963,2.9369 -10.76756,2.9369 -11.8054,0 -21.4018,-9.6 -21.4018,-21.3982 m 72.79277,-0.1766 c 0,11.7946 -9.59999,21.3946 -21.40179,21.3946 -3.84144,0 -7.43423,-1.027 -10.55135,-2.8072 4.55135,-4.8036 7.35856,-11.2865 7.35856,-18.4108 0,-1.7549 -0.17658,-3.4666 -0.5009,-5.1279 3.84864,2.1369 8.27026,3.3622 12.97657,3.3622 4.18738,0 8.15135,-0.9658 11.68288,-2.6883 0.28829,1.3837 0.43603,2.8144 0.43603,4.2774 m -18.19098,-26.59825 c 5.27928,-4.89733 8.59099,-11.88463 8.59099,-19.63603 0,-1.1604 -0.0829,-2.3027 -0.22343,-3.4234 10.72432,1.1459 19.10991,10.2486 19.10991,21.2756 0,6.26678 -2.72433,11.89208 -7.03063,15.80918 -4.03604,-7.5568 -11.58198,-12.96224 -20.44684,-14.02535"
       id="path4981" />
  </g>
  <style
     type="text/css"
     id="style4313">
	.st0{fill:#2D9A47;}
</style>
  <style
     type="text/css"
     id="style4332">
	.st0{fill:#EF412A;}
</style>
  <style
     type="text/css"
     id="style4902">
	.st0{fill:#FDB714;}
</style>
  <style
     type="text/css"
     id="style4954">
	.st0{fill:#8F1838;}
</style>
  <style
     type="text/css"
     id="style4979">
	.st0{fill:#1A3668;}
</style>
</svg>
