<?xml version="1.0" encoding="UTF-8" standalone="no"?>
<svg
   xmlns:dc="http://purl.org/dc/elements/1.1/"
   xmlns:cc="http://creativecommons.org/ns#"
   xmlns:rdf="http://www.w3.org/1999/02/22-rdf-syntax-ns#"
   xmlns:svg="http://www.w3.org/2000/svg"
   xmlns="http://www.w3.org/2000/svg"
   version="1.1"
   id="svg2"
   viewBox="0 0 142.96899 100"
   height="100"
   width="142.96899">
  <defs
     id="defs4" />
  <metadata
     id="metadata7">
    <rdf:RDF>
      <cc:Work
         rdf:about="">
        <dc:format>image/svg+xml</dc:format>
        <dc:type
           rdf:resource="http://purl.org/dc/dcmitype/StillImage" />
        <dc:title></dc:title>
      </cc:Work>
    </rdf:RDF>
  </metadata>
  <g
     transform="translate(0,-952.36216)"
     id="layer1">
    <g
       transform="matrix(0.50435298,0,0,0.50435298,-0.08571256,930.87361)"
       id="g4315">
      <path
         style="fill:#2d9a47"
         class="st0"
         d="m 283.64,147.49 c 0,-11.89 -7.63,-21.54 -19.19,-21.54 -5.78,0 -12.75,6.33 -16.54,10.23 -3.79,-3.9 -10.29,-10.24 -16.08,-10.24 -11.56,0 -19.66,9.65 -19.66,21.55 0,5.95 2.34,11.34 6.13,15.23 l 29.64,29.69 29.59,-29.66 -0.02,-0.02 c 3.78,-3.9 6.13,-9.29 6.13,-15.24"
         id="path4317" />
      <path
         style="fill:#2d9a47"
         class="st0"
         d="m 157.47,240.88 c -0.1,0 -0.2,0 -0.3,-0.01 -2.25,-0.14 -4.11,-1.81 -4.49,-4.03 l -15.05,-87.67 -22.8,42.28 c -1,1.85 -3.09,2.85 -5.14,2.48 -2.07,-0.37 -3.66,-2.02 -3.96,-4.1 l -9.68,-67.66 -17.71,39.79 c -0.78,1.75 -2.53,2.88 -4.45,2.88 l -68.85,0 c -2.69,0 -4.87,-2.18 -4.87,-4.86 0,-2.69 2.18,-4.87 4.87,-4.87 l 65.68,0 23.3,-52.33 c 0.88,-1.98 2.97,-3.14 5.12,-2.84 2.15,0.3 3.84,1.98 4.15,4.13 l 9.98,69.77 22.49,-41.69 c 0.99,-1.83 3.02,-2.83 5.07,-2.49 2.04,0.34 3.66,1.94 4.01,3.98 l 13.94,81.2 50.81,-168.77 c 0.58,-1.92 2.28,-3.29 4.28,-3.45 2.01,-0.15 3.89,0.93 4.77,2.74 l 26.73,55.42 c 1.17,2.42 0.15,5.33 -2.27,6.5 -2.42,1.17 -5.33,0.15 -6.5,-2.27 L 215.31,60.86 162.15,237.44 c -0.64,2.03 -2.55,3.44 -4.68,3.44"
         id="path4319" />
    </g>
  </g>
  <style
     type="text/css"
     id="style4313">
	.st0{fill:#2D9A47;}
</style>
</svg>
