<?xml version="1.0" encoding="UTF-8" standalone="no"?>
<svg
   xmlns:dc="http://purl.org/dc/elements/1.1/"
   xmlns:cc="http://creativecommons.org/ns#"
   xmlns:rdf="http://www.w3.org/1999/02/22-rdf-syntax-ns#"
   xmlns:svg="http://www.w3.org/2000/svg"
   xmlns="http://www.w3.org/2000/svg"
   version="1.1"
   id="svg2"
   viewBox="0 0 74.116995 100"
   height="100"
   width="74.116997">
  <defs
     id="defs4" />
  <metadata
     id="metadata7">
    <rdf:RDF>
      <cc:Work
         rdf:about="">
        <dc:format>image/svg+xml</dc:format>
        <dc:type
           rdf:resource="http://purl.org/dc/dcmitype/StillImage" />
        <dc:title></dc:title>
      </cc:Work>
    </rdf:RDF>
  </metadata>
  <g
     transform="translate(0,-952.36216)"
     id="layer1">
    <g
       transform="matrix(0.35277102,0,0,0.35277102,-12.939738,952.36216)"
       id="g4347">
      <path
         style="fill:#ef412a"
         class="st0"
         d="m 245.92,0 -66.19,0 c -0.45,0 -0.84,0.37 -0.84,0.84 l 0,22 c 0,0.47 0.39,0.84 0.84,0.84 l 26.36,0 -29.27,29.27 C 162.08,41.37 143.53,34.44 123.37,34.44 c -47.8,0 -86.69,38.89 -86.69,86.7 0,44.01 32.97,80.44 75.5,85.94 l 0,25.35 -26.11,0 c -0.48,0 -0.85,0.38 -0.85,0.84 l 0,23.57 c 0,0.47 0.37,0.84 0.85,0.84 l 26.11,0 0,24.95 c 0,0.46 0.38,0.84 0.84,0.84 l 23.57,0 c 0.47,0 0.85,-0.38 0.85,-0.84 l 0,-24.95 26.1,0 c 0.46,0 0.84,-0.37 0.84,-0.84 l 0,-23.57 c 0,-0.46 -0.38,-0.84 -0.84,-0.84 l -26.1,0 0,-25.75 c 41.13,-6.75 72.62,-42.53 72.62,-85.54 0,-18.56 -5.87,-35.75 -15.83,-49.86 l 28.85,-28.85 0,24.62 c 0,0.47 0.39,0.84 0.85,0.84 l 21.99,0 c 0.47,0 0.86,-0.37 0.86,-0.84 l 0,-66.21 C 246.78,0.37 246.39,0 245.92,0 M 123.37,184.95 c -35.19,0 -63.81,-28.63 -63.81,-63.81 0,-35.19 28.62,-63.81 63.81,-63.81 35.19,0 63.81,28.62 63.81,63.81 0.01,35.18 -28.62,63.81 -63.81,63.81"
         id="path4334" />
      <path
         style="fill:#ef412a"
         class="st0"
         d="m 162.35,94.94 -77.4,0 c -0.47,0 -0.84,0.34 -0.84,0.75 l 0,18.74 c 0,0.43 0.37,0.77 0.84,0.77 l 77.4,0 c 0.48,0 0.86,-0.33 0.86,-0.77 l 0,-18.74 c 0,-0.4 -0.38,-0.75 -0.86,-0.75"
         id="path4336" />
      <path
         style="fill:#ef412a"
         class="st0"
         d="m 162.35,128.4 -77.4,0 c -0.47,0 -0.84,0.35 -0.84,0.78 l 0,18.73 c 0,0.42 0.37,0.76 0.84,0.76 l 77.4,0 c 0.48,0 0.86,-0.34 0.86,-0.76 l 0,-18.73 c 0,-0.43 -0.38,-0.78 -0.86,-0.78"
         id="path4338" />
    </g>
  </g>
  <style
     type="text/css"
     id="style4313">
	.st0{fill:#2D9A47;}
</style>
  <style
     type="text/css"
     id="style4332">
	.st0{fill:#EF412A;}
</style>
</svg>
