<?xml version="1.0" encoding="UTF-8" standalone="no"?>
<svg
   xmlns:dc="http://purl.org/dc/elements/1.1/"
   xmlns:cc="http://creativecommons.org/ns#"
   xmlns:rdf="http://www.w3.org/1999/02/22-rdf-syntax-ns#"
   xmlns:svg="http://www.w3.org/2000/svg"
   xmlns="http://www.w3.org/2000/svg"
   version="1.1"
   id="svg2"
   viewBox="0 0 100.004 100"
   height="100"
   width="100.004">
  <defs
     id="defs4" />
  <metadata
     id="metadata7">
    <rdf:RDF>
      <cc:Work
         rdf:about="">
        <dc:format>image/svg+xml</dc:format>
        <dc:type
           rdf:resource="http://purl.org/dc/dcmitype/StillImage" />
        <dc:title></dc:title>
      </cc:Work>
    </rdf:RDF>
  </metadata>
  <g
     transform="translate(0,-952.36216)"
     id="layer1">
    <g
       transform="matrix(0.35278346,0,0,0.35278346,-0.03857098,952.36216)"
       id="g4904">
      <path
         style="fill:#fdb714"
         class="st0"
         d="m 141.83,60.99 c -44.97,0 -81.43,36.46 -81.43,81.44 0,45 36.46,81.45 81.43,81.45 44.97,0 81.43,-36.45 81.43,-81.45 0,-44.98 -36.46,-81.44 -81.43,-81.44 m -6.03,32.17 c 0,-2.71 2.72,-5.7 6.06,-5.7 3.33,0 6.03,2.98 6.03,5.7 l 0,27.96 c 0,2.7 -2.7,5.65 -6.03,5.65 -3.34,0 -6.06,-2.95 -6.06,-5.65 l 0,-27.96 z m 6.04,91.01 c -23.39,0 -42.36,-18.96 -42.36,-42.36 0,-19.02 12.52,-35.1 29.77,-40.46 l 0,15.77 c -8.98,4.58 -15.14,13.91 -15.14,24.69 0,15.31 12.41,27.73 27.73,27.73 15.32,0 27.73,-12.41 27.73,-27.73 0,-10.81 -6.19,-20.15 -15.21,-24.73 l 0,-15.75 c 17.29,5.34 29.85,21.43 29.85,40.48 0,23.39 -18.97,42.36 -42.37,42.36"
         id="path4906" />
      <path
         style="fill:#fdb714"
         class="st0"
         d="m 48.34,141.72 c 0,-3.69 -3.27,-6.68 -6.26,-6.68 l -35.66,0 c -3.01,0 -6.31,2.99 -6.31,6.68 0,3.7 3.3,6.71 6.31,6.71 l 35.67,0 c 2.98,0 6.25,-3.01 6.25,-6.71"
         id="path4908" />
      <path
         style="fill:#fdb714"
         class="st0"
         d="m 283.58,141.72 c 0,-3.69 -3.27,-6.68 -6.26,-6.68 l -35.66,0 c -3.01,0 -6.31,2.99 -6.31,6.68 0,3.7 3.3,6.71 6.31,6.71 l 35.66,0 c 2.99,0 6.26,-3.01 6.26,-6.71"
         id="path4910" />
      <path
         style="fill:#fdb714"
         class="st0"
         d="m 141.86,48.23 c 3.69,0 6.68,-3.27 6.68,-6.25 l 0,-35.68 c 0,-3.01 -2.99,-6.3 -6.68,-6.3 -3.7,0 -6.71,3.3 -6.71,6.3 l 0,35.67 c 0,2.99 3.01,6.26 6.71,6.26"
         id="path4912" />
      <path
         style="fill:#fdb714"
         class="st0"
         d="m 141.86,283.46 c 3.69,0 6.68,-3.27 6.68,-6.26 l 0,-35.66 c 0,-3.01 -2.99,-6.31 -6.68,-6.31 -3.7,0 -6.71,3.3 -6.71,6.31 l 0,35.66 c 0,2.99 3.01,6.26 6.71,6.26"
         id="path4914" />
      <path
         style="fill:#fdb714"
         class="st0"
         d="m 60.7,95.28 c 1.84,-3.21 0.49,-7.43 -2.11,-8.91 L 27.63,68.65 c -2.61,-1.5 -6.96,-0.54 -8.79,2.66 -1.84,3.21 -0.47,7.46 2.14,8.96 l 30.95,17.71 c 2.6,1.49 6.93,0.51 8.77,-2.7"
         id="path4916" />
      <path
         style="fill:#fdb714"
         class="st0"
         d="m 264.87,212.12 c 1.83,-3.2 0.48,-7.43 -2.11,-8.91 L 231.8,185.5 c -2.61,-1.49 -6.96,-0.54 -8.79,2.67 -1.84,3.2 -0.47,7.46 2.14,8.95 l 30.95,17.72 c 2.59,1.48 6.92,0.5 8.77,-2.72"
         id="path4918" />
      <path
         style="fill:#fdb714"
         class="st0"
         d="m 188.31,60.59 c 3.2,1.83 7.42,0.48 8.91,-2.11 l 17.71,-30.95 c 1.5,-2.62 0.54,-6.96 -2.66,-8.8 -3.21,-1.84 -7.47,-0.47 -8.96,2.14 L 185.6,51.82 c -1.5,2.6 -0.51,6.93 2.71,8.77"
         id="path4920" />
      <path
         style="fill:#fdb714"
         class="st0"
         d="m 71.46,264.75 c 3.2,1.83 7.42,0.48 8.91,-2.11 l 17.71,-30.95 c 1.5,-2.61 0.53,-6.97 -2.67,-8.8 -3.2,-1.84 -7.47,-0.47 -8.96,2.14 l -17.71,30.95 c -1.48,2.59 -0.5,6.93 2.72,8.77"
         id="path4922" />
      <path
         style="fill:#fdb714"
         class="st0"
         d="m 95.25,60.67 c 3.2,-1.84 4.16,-6.17 2.67,-8.76 L 80.14,20.99 c -1.51,-2.61 -5.74,-3.97 -8.94,-2.13 -3.22,1.84 -4.17,6.21 -2.66,8.81 l 17.77,30.91 c 1.49,2.59 5.72,3.93 8.94,2.09"
         id="path4924" />
      <path
         style="fill:#fdb714"
         class="st0"
         d="m 212.51,264.59 c 3.2,-1.84 4.16,-6.17 2.68,-8.75 l -17.78,-30.92 c -1.5,-2.61 -5.74,-3.98 -8.94,-2.14 -3.21,1.84 -4.17,6.21 -2.66,8.82 l 17.78,30.92 c 1.48,2.58 5.71,3.92 8.92,2.07"
         id="path4926" />
      <path
         style="fill:#fdb714"
         class="st0"
         d="m 222.91,95.13 c 1.84,3.2 6.16,4.16 8.75,2.67 l 30.91,-17.78 c 2.61,-1.5 3.99,-5.74 2.14,-8.94 -1.85,-3.21 -6.2,-4.17 -8.81,-2.67 l -30.92,17.78 c -2.57,1.49 -3.91,5.73 -2.07,8.94"
         id="path4928" />
      <path
         style="fill:#fdb714"
         class="st0"
         d="m 18.99,212.4 c 1.84,3.2 6.16,4.16 8.75,2.67 l 30.91,-17.78 c 2.61,-1.5 3.99,-5.74 2.14,-8.94 -1.84,-3.21 -6.2,-4.17 -8.8,-2.67 l -30.92,17.78 c -2.59,1.49 -3.93,5.73 -2.08,8.94"
         id="path4930" />
    </g>
  </g>
  <style
     type="text/css"
     id="style4313">
	.st0{fill:#2D9A47;}
</style>
  <style
     type="text/css"
     id="style4332">
	.st0{fill:#EF412A;}
</style>
  <style
     type="text/css"
     id="style4902">
	.st0{fill:#FDB714;}
</style>
</svg>
