<?xml version="1.0" encoding="UTF-8" standalone="no"?>
<svg
   xmlns:dc="http://purl.org/dc/elements/1.1/"
   xmlns:cc="http://creativecommons.org/ns#"
   xmlns:rdf="http://www.w3.org/1999/02/22-rdf-syntax-ns#"
   xmlns:svg="http://www.w3.org/2000/svg"
   xmlns="http://www.w3.org/2000/svg"
   version="1.1"
   id="svg2"
   viewBox="0 0 94.587 100"
   height="100"
   width="94.586998">
  <defs
     id="defs4" />
  <metadata
     id="metadata7">
    <rdf:RDF>
      <cc:Work
         rdf:about="">
        <dc:format>image/svg+xml</dc:format>
        <dc:type
           rdf:resource="http://purl.org/dc/dcmitype/StillImage" />
        <dc:title></dc:title>
      </cc:Work>
    </rdf:RDF>
  </metadata>
  <g
     transform="translate(0,-952.36216)"
     id="layer1">
    <g
       transform="matrix(0.35278346,0,0,0.35278346,-2.707693,952.36216)"
       id="g4956">
      <path
         style="fill:#8f1838"
         class="st0"
         d="M 250.02,67.08 193.34,121 c -2.15,2.13 -3.24,3.7 -3.24,8.1 l 0,151.13 c 0,1.77 1.45,3.22 3.24,3.22 l 58.55,0 c 1.78,0 3.23,-1.45 3.23,-3.22 l 0,-211.79 c 0,-1.78 -1.4,-5.04 -5.1,-1.36"
         id="path4958" />
      <path
         style="fill:#8f1838"
         class="st0"
         d="m 86.71,137.34 -56.69,53.92 c -2.14,2.13 -3.23,3.7 -3.23,8.09 l 0,80.89 c 0,1.77 1.45,3.22 3.23,3.22 l 58.56,0 c 1.79,0 3.23,-1.45 3.23,-3.22 l 0,-141.55 c -0.01,-1.79 -1.41,-5.05 -5.1,-1.35"
         id="path4960" />
      <path
         style="fill:#8f1838"
         class="st0"
         d="M 275.79,1.69 C 275.81,1.26 275.66,0.8 275.31,0.46 275.01,0.17 274.63,0.03 274.27,0 l -0.32,0.02 -0.46,0.02 -43.4,9.8 -0.79,0.08 c -0.31,0.07 -0.61,0.22 -0.85,0.44 -0.64,0.64 -0.64,1.69 0,2.33 l 0.49,0.49 9.92,9.91 -98.36,98.36 -45.44,-45.43 c -0.51,-0.52 -1.33,-0.52 -1.85,0 L 80.88,88.35 c -0.01,0 -0.01,0.01 -0.01,0.01 L 8.05,161.17 c -0.5,0.51 -0.5,1.35 0,1.85 l 12.35,12.34 c 0.5,0.51 1.32,0.51 1.83,0 l 71.92,-71.9 32.97,32.97 c 0.03,0.05 0.05,0.1 0.1,0.16 l 12.33,12.31 c 0.51,0.52 1.33,0.52 1.85,0 l 111.63,-111.62 10.41,10.4 c 0.64,0.65 1.68,0.65 2.32,0 0.3,-0.3 0.45,-0.67 0.47,-1.07 l 0.01,-0.14 9.53,-44.31 0.02,-0.47 z"
         id="path4962" />
      <path
         style="fill:#8f1838"
         class="st0"
         d="m 168.69,146.8 -27.43,27.65 c -0.52,0.43 -1.28,0.42 -1.77,-0.07 l -24.85,-25.33 c -4.55,-4.53 -5.53,-0.86 -5.53,0.92 l 0,130.25 c 0,1.77 1.43,3.22 3.21,3.22 l 58.58,0 c 1.77,0 3.22,-1.45 3.22,-3.22 l 0,-132.4 c -0.01,-1.78 -1.41,-5.05 -5.43,-1.02"
         id="path4964" />
    </g>
  </g>
  <style
     type="text/css"
     id="style4313">
	.st0{fill:#2D9A47;}
</style>
  <style
     type="text/css"
     id="style4332">
	.st0{fill:#EF412A;}
</style>
  <style
     type="text/css"
     id="style4902">
	.st0{fill:#FDB714;}
</style>
  <style
     type="text/css"
     id="style4954">
	.st0{fill:#8F1838;}
</style>
</svg>
