<svg xmlns="http://www.w3.org/2000/svg" width="512" height="512" version="1.2">
  <defs>
    <clipPath id="a">
      <path d="M65 39h20v14H65zm0 0"/>
    </clipPath>
    <clipPath id="b">
      <path d="M36 66h14v19H36zm0 0"/>
    </clipPath>
  </defs>
  <path fill="#3fb33a" d="M131.5 183c6.4-10.9 14.1-20.8 23-29.6L79.2 71c-18.9 18-35 39.1-47.7 62.2zm0 0"/>
  <path fill="#cc9917" d="M316 124.6c11.4 5.3 22 12 31.5 19.8L423 62A255.7 255.7 0 0 0 356 20.3zm0 0"/>
  <path fill="#c21930" d="M488.8 149.5l-100 49.8c4.8 11.2 8.1 23 10 35.4L510 224.2a254 254 0 0 0-21.2-74.7"/>
  <path fill="#339c3d" d="M381.6 184.9l100-49.9c-12.4-23-28.2-44-46.7-62l-75.5 82.3c8.6 8.9 16 18.8 22.2 29.6"/>
  <path fill="#3f7533" d="M111.6 256l.2-6.8-111.2-10a261.6 261.6 0 0 0 7 78.7L115 287c-2.3-10-3.5-20.4-3.5-31"/>
  <path fill="#f8ae0a" d="M367.6 347.4c-8 9.7-17 18.2-27.1 25.6l58.7 95.1a258.9 258.9 0 0 0 57.6-53.4zm0 0"/>
  <g clip-path="url(#a)" transform="scale(6.02076)">
    <path fill="#ee2e26" d="M66.5 42.5c0 1.8-.2 3.5-.6 5.1l17.9 5.1A42.5 42.5 0 0 0 85 40l-18.5 1.7v1"/>
  </g>
  <path fill="#f59117" d="M146.2 349.6l-89 67.6a257.7 257.7 0 0 0 58.2 52.6l58.7-95a145 145 0 0 1-27.9-25.2"/>
  <path fill="#1c7abf" d="M113.5 233.2c2-12.6 5.6-24.6 10.6-35.9l-100-49.8c-11 23.5-18.6 49-22 75.7zm0 0"/>
  <path fill="#8a1433" d="M385.6 476.7l-58.7-95a144 144 0 0 1-34.3 14l20.8 109.8c25.7-5.9 50-15.7 72.2-28.8"/>
  <path fill="#2eb0dc" d="M392.8 302.2a145 145 0 0 1-15.7 32.2l89.3 67.3c14.4-20.8 26-44 33.7-68.6zm0 0"/>
  <g clip-path="url(#b)" transform="scale(6.02076)">
    <path fill="#f0591c" d="M46 66.2a24.6 24.6 0 0 1-6.3.1l-3.4 18.3a43.1 43.1 0 0 0 13.1-.1zm0 0"/>
  </g>
  <path fill="#eb192b" d="M265.2 111.9c12.4.8 24.4 3.1 35.7 6.9l40.2-104.4A254.4 254.4 0 0 0 265.2.1zm0 0"/>
  <path fill="#e10a85" d="M223.3 396.6c-12.5-3-24.4-7.5-35.4-13.4l-58.8 95c22.6 13 47.3 22.6 73.5 28.2zm0 0"/>
  <path fill="#1e3363" d="M212.6 118.3c11.6-3.7 23.8-6 36.5-6.5V0c-26.9.7-52.7 5.6-76.9 14zm0 0"/>
  <path fill="#ca8219" d="M136.4 336.7a144 144 0 0 1-17-34.1L12 333.4a255.5 255.5 0 0 0 35.5 71zm0 0"/>
  <path fill="#1e4f8c" d="M166.6 142.7a146 146 0 0 1 31-18.7L157.1 19.8a256 256 0 0 0-66 40.3zm0 0"/>
</svg>