<svg xmlns="http://www.w3.org/2000/svg" width="702" height="100" version="1.2">
  <path fill="#00abee" d="M2.6 60.4H14c10.3 0 16.9 7 16.9 17.4v.5c0 10.3-6.6 17.5-16.9 17.5H2.6zM9.9 67v22.2h4c5.6 0 9.4-4 9.4-11V78c0-7-3.8-11-9.3-11zm0 0M34.8 60.4h22.8V67H42.1v7.6h13.6v6.7H42.1v7.9h15.7v6.6h-23zm0 0M59 60.4h8l7.5 24.3 7.4-24.3h7.8L77.7 96H71zm0 0M92.2 60.4H115V67H99.5v7.6h13.7v6.7H99.5v7.9h15.7v6.6h-23zm0 0M119.1 60.4h7.4V89h14.3v6.8H119zm0 0M140.7 78.4v-.6c0-10.6 6.7-18 16-18 9.5 0 16 7.3 16 18v.5c0 10.6-6.6 18-16 18s-16-7.3-16-17.9m24.5-.1v-.4c0-7-3.6-11.4-8.5-11.4-5 0-8.4 4.4-8.4 11.4v.3c0 7 3.5 11.4 8.5 11.4 4.9 0 8.4-4.3 8.4-11.3M176.7 60.4h11.8c8 0 13 4.6 13 12.1v.1c0 8.2-5.9 12.2-13.3 12.4H184v10.8h-7.3zm11.4 18c3.8 0 6-2.4 6-5.6 0-3.8-2.2-5.8-6-5.8h-4v11.4zm0 0M204.4 60.4h7.6l8 14.3 7.7-14.3h7.8v35.4h-7.2V73.2l-8.4 14.6h-.1l-8.3-14.5v22.5h-7.1zm0 0M240.7 60.4h22.8V67H248v7.6h13.6v6.7H248v7.9h15.7v6.6h-23zm0 0M267.6 60.4h6.7L288 81V60.4h7.2v35.4h-6.3l-14-21.4v21.4h-7.2zm0 0M307 67.1h-8.9v-6.7h25.1V67h-8.9v28.7H307zm0 0M0 45.8l4.8-6a15 15 0 0 0 9.6 4.5c3.1 0 5-1.6 5-3.9 0-2-1-3.2-6.6-5.3-7-2.7-11.2-5.3-11.2-12 0-6.8 5.2-11.4 12.7-11.4 4.6 0 9 1.6 12.6 4.8l-4.5 6C19.9 20.6 17 19 14 19c-2.8 0-4.5 1.4-4.5 3.4 0 2.2 1.3 3.3 7.4 5.8 6.7 2.6 10.4 5.5 10.4 11.6 0 7.3-5.5 11.7-13 11.7-5 0-10.1-1.7-14.4-5.7M30.8 36V12.1h8V36c0 5.5 2.6 8.2 6.8 8.2 4.2 0 6.8-2.7 6.8-8v-24h8v23.6c0 10.7-6 15.8-15 15.8-8.8 0-14.6-5.2-14.6-15.7M62.7 45.8l4.8-6a15 15 0 0 0 9.7 4.5c3 0 5-1.6 5-3.9 0-2-1.2-3.2-6.7-5.3-6.9-2.7-11.2-5.3-11.2-12 0-6.8 5.3-11.4 12.8-11.4 4.5 0 9 1.6 12.5 4.8l-4.5 6c-2.4-2-5.3-3.5-8.3-3.5-2.7 0-4.5 1.4-4.5 3.4 0 2.2 1.4 3.3 7.4 5.8 6.8 2.6 10.4 5.5 10.4 11.6 0 7.3-5.4 11.7-13 11.7-5 0-10-1.7-14.4-5.7M100.6 19.6H91v-7.4h27.5v7.4h-9.8V51h-8zm0 0M128.8 12h7.6l14 39H142l-2.9-8.4h-13.3l-2.9 8.4h-8zm7.9 23.5l-4.2-12.6-4.3 12.6zm0 0M153.4 12.2h8V51h-8zm0 0M167.4 12.2h7.4l14.9 22.6V12.2h7.8V51h-6.8l-15.4-23.4V51h-7.9zm0 0M214.2 12h7.7l14 39h-8.4l-2.9-8.4h-13.4l-2.8 8.4h-8zm8 23.5L218 22.9l-4.3 12.6zm0 0M238.6 12.2H253c4.3 0 8 1.2 10.2 3.4a9 9 0 0 1 2.6 6.6v.2c0 4.5-2.5 7-5.3 8.4 4.2 1.6 7 4.2 7 9.3v.3c0 7-5.7 10.6-14 10.6h-15zm19.2 11.4c0-2.8-2-4.3-5.4-4.3h-6v8.8h5.6c3.6 0 5.8-1.5 5.8-4.4zm-4.3 11.2h-7V44h7.1c3.6 0 6-1.5 6-4.5 0-2.8-2.1-4.6-6.1-4.6M271.2 12.2h8v31.5H295V51h-23.8zm0 0M298.3 12.2h25v7.3h-17v8.3h15v7.3h-15v8.7h17.2V51h-25.2zm0 0"/>
  <path fill="#5187cf" d="M379.1 51.1h39.3c-.7 31.6-18.1 47.4-41.5 47.4-25.2 0-41.4-21.3-41.4-44.1 0-22.9 16.2-44.1 41.4-44.1 27.9 0 35.6 17.4 38.8 26.4L397.9 38c-3-7.5-9.2-12.5-21-12.5-13.4 0-23.8 10.9-23.8 29 0 15.3 9.6 29 24.9 29a21 21 0 0 0 21.5-17.8H379zm0 0M586 12.1h17v69h32.5V97H586zm0 0M683 34.4c0-5.8-5.7-9.4-12.4-9.4-8.5 0-13.6 3.7-13.6 9.3 0 5.9 5.7 8.7 9.9 10l15.5 5c11.3 3.6 19.3 10.2 19.3 23.2 0 10.4-7.4 26-30.9 26-29.4 0-32.1-19-32.1-26.6l16.9-.4c0 9 7 12.6 15.3 12.6 5.8 0 13.9-2.9 13.9-9.4 0-4.5-2-6.9-10.3-10L656 58.2A23 23 0 0 1 640.1 37c0-10.8 7.5-26.4 29.5-26.4 26.1 0 30.3 17.4 30.3 23.6zm0 0"/>
  <path fill="#57bf33" d="M445.4 44c1-1.8 2.3-3.4 3.8-4.9l-12.3-13.4c-3.1 3-5.8 6.3-7.9 10.1zm0 0"/>
  <path fill="#deb31e" d="M475.6 34.4c1.8.9 3.5 2 5.1 3.3l12.4-13.5a42 42 0 0 0-11-6.8zm0 0"/>
  <path fill="#c51c2e" d="M503.8 38.5l-16.3 8.1c.7 1.9 1.3 3.8 1.6 5.8l18.2-1.7c-.6-4.3-1.7-8.4-3.5-12.2"/>
  <path fill="#45a338" d="M486.3 44.3l16.3-8.2c-2-3.7-4.6-7.2-7.6-10.1l-12.3 13.5a24 24 0 0 1 3.6 4.8"/>
  <path fill="#3a7d3d" d="M442.2 55.9v-1.1L424 53.2a42.4 42.4 0 0 0 1.1 12.8l17.6-5c-.4-1.7-.5-3.4-.5-5.1"/>
  <path fill="#f5bf0a" d="M484 70.8a24 24 0 0 1-4.4 4.2l9.6 15.6c3.5-2.4 6.7-5.4 9.4-8.8zm0 0"/>
  <path fill="#ee2e26" d="M489.3 55.9c0 1.7-.1 3.4-.5 5l17.6 5a42 42 0 0 0 1.1-12.6L489.3 55v.9"/>
  <path fill="#f59117" d="M447.8 71.2l-14.5 11c2.7 3.4 5.9 6.3 9.5 8.6l9.6-15.5a23.6 23.6 0 0 1-4.6-4.1"/>
  <path fill="#4597d7" d="M442.5 52.2c.3-2 .9-4 1.7-5.9l-16.3-8.1c-1.9 3.8-3 8-3.7 12.3zm0 0"/>
  <path fill="#a1143f" d="M487 92l-9.7-15.6c-1.7 1-3.6 1.8-5.6 2.3l3.4 18c4.2-1 8.2-2.6 11.8-4.7"/>
  <path fill="#54c2e3" d="M488.1 63.5c-.6 1.8-1.5 3.6-2.5 5.2l14.5 11c2.4-3.4 4.3-7.2 5.6-11.2zm0 0"/>
  <path fill="#f05423" d="M469.2 79.2a23.8 23.8 0 0 1-6.2.1l-3.4 18a42 42 0 0 0 13-.1zm0 0"/>
  <path fill="#e81938" d="M467.3 32.3c2 .2 4 .6 5.8 1.2l6.6-17c-4-1.5-8.1-2.3-12.4-2.4zm0 0"/>
  <path fill="#dc0c66" d="M460.4 78.9c-2-.5-4-1.2-5.8-2.2L445 92.2c3.7 2.1 7.7 3.7 12 4.6zm0 0"/>
  <path fill="#234268" d="M458.7 33.4c1.9-.6 3.9-1 6-1V14c-4.5 0-8.7.9-12.6 2.3zm0 0"/>
  <path fill="#c29119" d="M446.2 69a23.6 23.6 0 0 1-2.8-5.5l-17.5 5c1.3 4.2 3.3 8.1 5.8 11.6zm0 0"/>
  <path fill="#2b63a3" d="M451.1 37.4c1.6-1.2 3.3-2.3 5-3l-6.5-17.1c-4 1.6-7.6 3.9-10.8 6.6zm0 0"/>
  <path fill="#5187cf" d="M558.3 79h-31.5l-5.6 17.9h-18.5l31.3-86h18.1L583 97H564zm-15.6-47.4h-.2L531.6 65h22.1zm0 0"/>
</svg>