<svg xmlns="http://www.w3.org/2000/svg" width="923" height="100" version="1.2" preserveAspectRatio="xMinYMid meet">
  <path fill="#598fd1" d="M61.7 41.5C59 30 51.4 24.2 41.3 24.2c-14.3 0-23 13.8-23 30.2 0 18.6 9.1 29.9 23.4 29.9 8.5 0 16.7-5.6 19.8-15.6l18 1.3c-6 19.7-20.4 30-38.5 30-23.9 0-41-16.2-41-45.7C0 27.6 16.8 8.5 41 8.5c18.6 0 33.8 9.2 38.4 31.8zm0 0M88.7 10.2H145v15.7h-38.7v20h37.6v15.7h-37.6v21H145v15.8H88.7zm0 0M153.9 10.2h17.6v71.7h33.9v16.5h-51.5zm0 0M212.6 10.2H269v15.7h-38.7v20H268v15.7h-37.7v21H269v15.8h-56.3zm0 0"/>
  <path fill="#3fb33a" d="M301.5 41.2c1.1-2 2.5-3.7 4-5.3l-13.4-14.7a46 46 0 0 0-8.5 11.1zm0 0"/>
  <path fill="#cc9917" d="M334.5 30.8c2 1 3.9 2.1 5.6 3.5l13.5-14.7c-3.6-3-7.6-5.6-12-7.5zm0 0"/>
  <path fill="#c21930" d="M365.3 35.2l-17.8 9c.8 2 1.4 4 1.8 6.2l19.8-1.8c-.6-4.7-1.9-9.2-3.8-13.4"/>
  <path fill="#339c3d" d="M346.2 41.5l17.9-8.9c-2.3-4-5-7.8-8.4-11l-13.5 14.7a26 26 0 0 1 4 5.2"/>
  <path fill="#3f7533" d="M298 54.2V53l-20-1.7a44.5 44.5 0 0 0 1.3 14l19.2-5.5a26 26 0 0 1-.6-5.6"/>
  <path fill="#f8ae0a" d="M343.7 70.6a26 26 0 0 1-4.9 4.6l10.5 17a46 46 0 0 0 10.3-9.6zm0 0"/>
  <path fill="#ee2e26" d="M349.5 54.2c0 2-.2 3.8-.6 5.5l19.2 5.6a45.8 45.8 0 0 0 1.3-13.9l-19.9 2v.8"/>
  <path fill="#f59117" d="M304.1 71l-15.9 12c3 3.7 6.5 6.9 10.4 9.5l10.5-17a25.8 25.8 0 0 1-5-4.5"/>
  <path fill="#1c7abf" d="M298.3 50.2c.3-2.3 1-4.4 1.9-6.4l-17.9-9c-2 4.3-3.3 8.8-4 13.6zm0 0"/>
  <path fill="#8a1433" d="M346.9 93.7l-10.5-17c-2 1-4 2-6.1 2.5l3.7 19.6c4.6-1 9-2.8 12.9-5.1"/>
  <path fill="#2eb0dc" d="M348.2 62.5c-.7 2-1.7 4-2.8 5.8l16 12c2.5-3.7 4.6-7.9 6-12.3zm0 0"/>
  <path fill="#f0591c" d="M327.5 79.8a25.8 25.8 0 0 1-6.8 0L317 99.6a46.3 46.3 0 0 0 14.2-.1zm0 0"/>
  <path fill="#eb192b" d="M325.4 28.5c2.2.1 4.3.6 6.4 1.2l7.1-18.6a45.3 45.3 0 0 0-13.5-2.6zm0 0"/>
  <path fill="#e10a85" d="M317.9 79.4c-2.2-.5-4.4-1.4-6.3-2.4L301 94c4 2.3 8.4 4 13 5zm0 0"/>
  <path fill="#1e3363" d="M316 29.6c2-.6 4.2-1 6.5-1.1v-20c-4.8.1-9.4 1-13.7 2.5zm0 0"/>
  <path fill="#ca8219" d="M302.4 68.7a26 26 0 0 1-3-6.1L280 68c1.5 4.6 3.6 8.8 6.4 12.7zm0 0"/>
  <path fill="#1e4f8c" d="M307.8 34a26 26 0 0 1 5.5-3.3L306 12a45.8 45.8 0 0 0-11.8 7.2zm0 0"/>
  <path fill="#00abee" d="M378.7 43l18.6-26.6H380V9.3h27.5v6.3l-18.7 26.6h18.7v7.2h-28.8zm0 0M424.6 27c5.5 0 7-3 7-5.5 0-2.8-1.5-5.4-7.2-5.4h-5v11zm-.6 6.5h-4.7v15.9h-8V9.3h15c8.4 0 13.2 5.2 13.2 12 0 4.1-2.3 9.6-7.4 11.2l9.3 16.9h-9.6zm0 0M462.1 15.7c-7.4 0-11.2 6.4-11.2 13.6 0 7.2 3.8 13.7 11.2 13.7 7.5 0 11.2-6.5 11.2-13.7 0-7.2-3.7-13.6-11.2-13.6m0-7.2c12.5 0 19.6 10 19.6 20.8s-7 20.8-19.6 20.8c-12.4 0-19.5-10-19.5-20.8s7-20.8 19.5-20.8M508.6 21.4l-6.7 28h-8.5L483.1 9.3h8.5l6.3 29.5 6.4-29.5h8.6l6.6 29.5 5.9-29.5h8.5l-10.3 40h-8.5zm0 0M544.8 22v27.4H537V9.3h8.5L562 36.2h.1v-27h7.7v40.2h-8.3zm0 0M593.8 15.7c-7.5 0-11.2 6.4-11.2 13.6 0 7.2 3.7 13.7 11.2 13.7 7.5 0 11.2-6.5 11.2-13.7 0-7.2-3.7-13.6-11.2-13.6m0-7.2c12.5 0 19.5 10 19.5 20.8s-7 20.8-19.5 20.8-19.5-10-19.5-20.8 7-20.8 19.5-20.8M640.3 21.4h-.1l-6.6 28H625L614.7 9.3h8.6l6.2 29.5h.1L636 9.3h8.7l6.5 29.5h.1L657 9.3h8.5l-10.2 40h-8.5zm0 0M681.5 19h-.1l-5 15.5h10.2zm7.3 22H674l-2.6 8.4h-8.7l14.7-40.1h8.4l14.4 40h-8.8zm0 0M700.2 43l18.6-26.6h-17.3V9.3H729v6.3l-18.7 26.6H729v7.2h-28.8zm0 0M750.6 15.7c-7.5 0-11.2 6.4-11.2 13.6 0 7.2 3.7 13.7 11.2 13.7 7.4 0 11.2-6.5 11.2-13.7 0-7.2-3.8-13.6-11.2-13.6m0-7.2c12.4 0 19.5 10 19.5 20.8s-7 20.8-19.5 20.8-19.6-10-19.6-20.8 7-20.8 19.6-20.8M782.5 22h-.2v27.4h-7.6V9.3h8.5l16.3 26.9h.1v-27h7.7v40.2H799zm0 0M813.6 9.3h25.6v7.1h-17.6v9.1h17.2v7.2h-17.2v9.5h17.6v7.2h-25.6zm0 0M862.5 27.8H881c-.3 14.8-8.5 22.3-19.5 22.3-12 0-19.5-10-19.5-20.8s7.6-20.8 19.5-20.8c13.1 0 16.8 8.2 18.3 12.5l-8.4.5c-1.4-3.5-4.3-5.8-10-5.8-6.2 0-11.1 5-11.1 13.6 0 7.2 4.5 13.7 11.7 13.7 6.5 0 9.5-4.6 10.1-8.4h-9.6zm0 0M903.4 15.7c-7.5 0-11.2 6.4-11.2 13.6 0 7.2 3.7 13.7 11.2 13.7 7.5 0 11.2-6.5 11.2-13.7 0-7.2-3.7-13.6-11.2-13.6m0-7.2c12.5 0 19.5 10 19.5 20.8s-7 20.8-19.5 20.8-19.5-10-19.5-20.8 7-20.8 19.5-20.8M394.6 77c5.5 0 6.8-3 6.8-5.6 0-2.9-1.3-5.4-7.1-5.4h-5v11zm-.7 6.4h-4.7v15.9h-8V59.2h15c8.4 0 13.2 5.2 13.2 11.9 0 4.2-2.2 9.7-7.4 11.2l9.3 17h-9.5zm0 0M432 65.5c-7.4 0-11.1 6.5-11.1 13.7 0 7.2 3.7 13.7 11.2 13.7 7.4 0 11.2-6.5 11.2-13.7 0-7.2-3.8-13.7-11.2-13.7m0-7c12.4 0 19.5 10 19.5 20.7 0 10.8-7 20.8-19.5 20.8s-19.6-10-19.6-20.8 7-20.8 19.6-20.8M453.7 93l18.6-26.7h-17.4v-7.1h27.5v6.2l-18.7 26.7h18.7v7.2h-28.7zm0 0M508.6 71.3l-6.7 28h-8.5l-10.3-40.1h8.5l6.3 29.4 6.4-29.4h8.6l6.6 29.4 5.9-29.4h8.5l-10.3 40h-8.5zm0 0M554.8 65.5c-7.5 0-11.2 6.5-11.2 13.7 0 7.2 3.7 13.7 11.2 13.7 7.5 0 11.2-6.5 11.2-13.7 0-7.2-3.7-13.7-11.2-13.7m0-7c12.5 0 19.5 10 19.5 20.7 0 10.8-7 20.8-19.5 20.8s-19.5-10-19.5-20.8 7-20.8 19.5-20.8M575.8 59.2H594v26.4c0 12.7-7.6 14-15.7 14H576v-6.9h4c4 0 6.2-1.1 6.2-5.3V66.3h-10.3zm0 0M625 59.2h8v23.4c0 12.5-7.9 17.4-16.6 17.4-8.7 0-16.7-4.9-16.7-17.4V59.2h8v23.5c0 6.6 3 10.2 8.7 10.2 5.7 0 8.7-3.6 8.7-10.2zm0 0M465.4 0h6.6l-6.9 6.9h-4zm0 0M714.9 1.4c1.6 0 2.8 1.3 2.8 2.8 0 1.6-1.2 2.9-2.8 2.9a2.9 2.9 0 0 1-2.8-2.9c0-1.5 1.2-2.8 2.8-2.8"/>
</svg>