<svg width="48" height="48" viewBox="0 0 48 48" fill="none" xmlns="http://www.w3.org/2000/svg">
<path d="M48 5.14286V42.8571C48 45.6964 45.6964 48 42.8571 48H33.7179V29.0143H40.2107L41.1429 21.7714H33.7179V17.1429C33.7179 15.0429 34.2964 13.6179 37.3071 13.6179H41.1429V7.14643C40.4786 7.06071 38.2071 6.85714 35.55 6.85714C30.0214 6.85714 26.2286 10.2321 26.2286 16.4357V21.7821H19.7143V29.025H26.2393V48H5.14286C2.30357 48 0 45.6964 0 42.8571V5.14286C0 2.30357 2.30357 0 5.14286 0H42.8571C45.6964 0 48 2.30357 48 5.14286Z" fill="white"/>
</svg>
