<svg width="56" height="56" viewBox="0 0 56 56" fill="none" xmlns="http://www.w3.org/2000/svg">
<g filter="url(#filter0_d)">
<path d="M52 5.14286V42.8571C52 45.6964 49.6964 48 46.8571 48H37.7179V29.0143H44.2107L45.1429 21.7714H37.7179V17.1429C37.7179 15.0429 38.2964 13.6179 41.3071 13.6179H45.1429V7.14643C44.4786 7.06071 42.2071 6.85714 39.55 6.85714C34.0214 6.85714 30.2286 10.2321 30.2286 16.4357V21.7821H23.7143V29.025H30.2393V48H9.14286C6.30357 48 4 45.6964 4 42.8571V5.14286C4 2.30357 6.30357 0 9.14286 0H46.8571C49.6964 0 52 2.30357 52 5.14286Z" fill="white"/>
</g>
<defs>
<filter id="filter0_d" x="0" y="0" width="56" height="56" filterUnits="userSpaceOnUse" color-interpolation-filters="sRGB">
<feFlood flood-opacity="0" result="BackgroundImageFix"/>
<feColorMatrix in="SourceAlpha" type="matrix" values="0 0 0 0 0 0 0 0 0 0 0 0 0 0 0 0 0 0 127 0"/>
<feOffset dy="4"/>
<feGaussianBlur stdDeviation="2"/>
<feColorMatrix type="matrix" values="0 0 0 0 0.0901961 0 0 0 0 0.168627 0 0 0 0 0.301961 0 0 0 0.1 0"/>
<feBlend mode="normal" in2="BackgroundImageFix" result="effect1_dropShadow"/>
<feBlend mode="normal" in="SourceGraphic" in2="effect1_dropShadow" result="shape"/>
</filter>
</defs>
</svg>
