<svg width="70" height="56" viewBox="0 0 70 56" fill="none" xmlns="http://www.w3.org/2000/svg">
<g filter="url(#filter0_d)">
<path d="M56.3202 30.061V45.4266C56.3202 46.8527 55.1729 48 53.7468 48H41.3085C40.6008 48 40.0218 47.421 40.0218 46.7133V34.7039C40.0218 33.9962 39.4428 33.4172 38.7351 33.4172H31.0148C30.3071 33.4172 29.728 33.9962 29.728 34.7039V46.7133C29.728 47.421 29.149 48 28.4413 48H16.003C14.5769 48 13.4296 46.8527 13.4296 45.4266V30.061C13.4296 29.675 13.6011 29.3104 13.9014 29.0638L34.06 12.4651C34.5318 12.0791 35.218 12.0791 35.7006 12.4651L55.8592 29.0638C56.1487 29.3104 56.3202 29.675 56.3202 30.061ZM65.2844 23.5309L56.3202 16.143V1.29208C56.3202 0.584385 55.7412 0.00536161 55.0335 0.00536161H49.0288C48.3211 0.00536161 47.7421 0.584385 47.7421 1.29208V9.07673L38.1453 1.17413C36.2474 -0.391377 33.5024 -0.391377 31.6045 1.17413L4.46544 23.5309C3.91858 23.9812 3.84353 24.7962 4.29388 25.343L7.02816 28.667C7.47851 29.2139 8.29343 29.289 8.84029 28.8386L34.06 8.0688C34.5318 7.68279 35.218 7.68279 35.7006 8.0688L60.9203 28.8386C61.4671 29.289 62.282 29.2139 62.7324 28.667L65.4667 25.343C65.917 24.7854 65.8312 23.9812 65.2844 23.5309V23.5309Z" fill="white"/>
</g>
<defs>
<filter id="filter0_d" x="0" y="0" width="69.7562" height="56" filterUnits="userSpaceOnUse" color-interpolation-filters="sRGB">
<feFlood flood-opacity="0" result="BackgroundImageFix"/>
<feColorMatrix in="SourceAlpha" type="matrix" values="0 0 0 0 0 0 0 0 0 0 0 0 0 0 0 0 0 0 127 0"/>
<feOffset dy="4"/>
<feGaussianBlur stdDeviation="2"/>
<feColorMatrix type="matrix" values="0 0 0 0 0.0901961 0 0 0 0 0.168627 0 0 0 0 0.301961 0 0 0 0.1 0"/>
<feBlend mode="normal" in2="BackgroundImageFix" result="effect1_dropShadow"/>
<feBlend mode="normal" in="SourceGraphic" in2="effect1_dropShadow" result="shape"/>
</filter>
</defs>
</svg>
