<?xml version="1.0" encoding="UTF-8" standalone="no"?>
<svg
   xmlns:dc="http://purl.org/dc/elements/1.1/"
   xmlns:cc="http://creativecommons.org/ns#"
   xmlns:rdf="http://www.w3.org/1999/02/22-rdf-syntax-ns#"
   xmlns:svg="http://www.w3.org/2000/svg"
   xmlns="http://www.w3.org/2000/svg"
   xmlns:sodipodi="http://sodipodi.sourceforge.net/DTD/sodipodi-0.dtd"
   xmlns:inkscape="http://www.inkscape.org/namespaces/inkscape"
   width="62"
   height="62"
   viewBox="0 0 62 62"
   version="1.1"
   id="svg6075"
   sodipodi:docname="homepage.svg"
   style="fill:none"
   inkscape:version="0.92.2 (5c3e80d, 2017-08-06)">
  <metadata
     id="metadata6081">
    <rdf:RDF>
      <cc:Work
         rdf:about="">
        <dc:format>image/svg+xml</dc:format>
        <dc:type
           rdf:resource="http://purl.org/dc/dcmitype/StillImage" />
        <dc:title></dc:title>
      </cc:Work>
    </rdf:RDF>
  </metadata>
  <defs
     id="defs6079" />
  <sodipodi:namedview
     pagecolor="#ffffff"
     bordercolor="#666666"
     borderopacity="1"
     objecttolerance="10"
     gridtolerance="10"
     guidetolerance="10"
     inkscape:pageopacity="0"
     inkscape:pageshadow="2"
     inkscape:window-width="1920"
     inkscape:window-height="1017"
     id="namedview6077"
     showgrid="false"
     inkscape:zoom="4.5806452"
     inkscape:cx="31"
     inkscape:cy="32.732394"
     inkscape:window-x="-8"
     inkscape:window-y="32"
     inkscape:window-maximized="1"
     inkscape:current-layer="svg6075" />
  <path
     d="M 52.3202,37.061 V 52.4266 C 52.3202,53.8527 51.1729,55 49.7468,55 H 37.3085 c -0.7077,0 -1.2867,-0.579 -1.2867,-1.2867 V 41.7039 c 0,-0.7077 -0.579,-1.2867 -1.2867,-1.2867 h -7.7203 c -0.7077,0 -1.2868,0.579 -1.2868,1.2867 V 53.7133 C 25.728,54.421 25.149,55 24.4413,55 H 12.003 C 10.5769,55 9.42959,53.8527 9.42959,52.4266 V 37.061 c 0,-0.386 0.17156,-0.7506 0.47179,-0.9972 L 30.06,19.4651 c 0.4718,-0.386 1.158,-0.386 1.6406,0 l 20.1586,16.5987 c 0.2895,0.2466 0.461,0.6112 0.461,0.9972 z M 61.2844,30.5309 52.3202,23.143 V 8.29208 c 0,-0.707695 -0.579,-1.286718 -1.2867,-1.286718 h -6.0047 c -0.7077,0 -1.2867,0.579023 -1.2867,1.286718 v 7.78465 l -9.5968,-7.9026 c -1.8979,-1.565507 -4.6429,-1.565507 -6.5408,0 L 0.46544,30.5309 c -0.5468562,0.4503 -0.621915,1.2653 -0.171563,1.8121 l 2.734283,3.324 c 0.45035,0.5469 1.26527,0.622 1.81213,0.1716 L 30.06,15.0688 c 0.4718,-0.38601 1.158,-0.38601 1.6406,0 l 25.2197,20.7698 c 0.5468,0.4504 1.3617,0.3753 1.8121,-0.1716 l 2.7343,-3.324 c 0.4503,-0.5576 0.3645,-1.3618 -0.1823,-1.8121 z"
     id="path6073"
     inkscape:connector-curvature="0"
     style="fill:#ffffff" />
</svg>
