<svg width="56" height="56" viewBox="0 0 56 56" fill="none" xmlns="http://www.w3.org/2000/svg">
<g filter="url(#filter0_d)">
<path d="M46.8571 0H9.14286C6.30357 0 4 2.30357 4 5.14286V42.8571C4 45.6964 6.30357 48 9.14286 48H46.8571C49.6964 48 52 45.6964 52 42.8571V5.14286C52 2.30357 49.6964 0 46.8571 0ZM41.6179 17.0143C41.6393 17.3143 41.6393 17.625 41.6393 17.925C41.6393 27.2143 34.5679 37.9179 21.6464 37.9179C17.6607 37.9179 13.9643 36.7607 10.8571 34.7679C11.425 34.8321 11.9714 34.8536 12.55 34.8536C15.8393 34.8536 18.8607 33.7393 21.2714 31.8536C18.1857 31.7893 15.5929 29.7643 14.7036 26.9786C15.7857 27.1393 16.7607 27.1393 17.875 26.85C14.6607 26.1964 12.25 23.3679 12.25 19.95V19.8643C13.1821 20.3893 14.275 20.7107 15.4214 20.7536C14.4576 20.1125 13.6675 19.2427 13.1216 18.222C12.5757 17.2012 12.291 16.0611 12.2929 14.9036C12.2929 13.5964 12.6357 12.3964 13.2464 11.3571C16.7071 15.6214 21.9036 18.4071 27.7321 18.7071C26.7357 13.9393 30.3036 10.0714 34.5893 10.0714C36.6143 10.0714 38.4357 10.9179 39.7214 12.2893C41.3071 11.9893 42.8286 11.4 44.1786 10.5964C43.6536 12.225 42.55 13.5964 41.0929 14.4643C42.5071 14.3143 43.8786 13.9179 45.1429 13.3714C44.1893 14.775 42.9893 16.0179 41.6179 17.0143Z" fill="white"/>
</g>
<defs>
<filter id="filter0_d" x="0" y="0" width="56" height="56" filterUnits="userSpaceOnUse" color-interpolation-filters="sRGB">
<feFlood flood-opacity="0" result="BackgroundImageFix"/>
<feColorMatrix in="SourceAlpha" type="matrix" values="0 0 0 0 0 0 0 0 0 0 0 0 0 0 0 0 0 0 127 0"/>
<feOffset dy="4"/>
<feGaussianBlur stdDeviation="2"/>
<feColorMatrix type="matrix" values="0 0 0 0 0.0901961 0 0 0 0 0.168627 0 0 0 0 0.301961 0 0 0 0.1 0"/>
<feBlend mode="normal" in2="BackgroundImageFix" result="effect1_dropShadow"/>
<feBlend mode="normal" in="SourceGraphic" in2="effect1_dropShadow" result="shape"/>
</filter>
</defs>
</svg>
